# xmcd
#
# Track frame offsets:
#	150
#	18613
#	35778
#	56063
#	76388
#	93239
#	106997
#	122152
#	144163
#	158338
#	177088
#	192838
#	208213
#	224077
#	239387
#	254161
#
# Disc length: 3639 seconds
#
# Revision: 0
# Processed by: cddbd v1.5.1PL0 Copyright (c) Steve Scherf et al.
# Submitted via: audiograbber 1.83.01
#
DISCID=e80e3510
DTITLE=Martin Briley - The Mercury Years Disc Two
DYEAR=2005
DGENRE=Rock
TTITLE0=Dangerous Moments
TTITLE1=Think Of Me
TTITLE2=Ghosts
TTITLE3=It Shouldn't Have To Hurt That Much
TTITLE4=Alone At Last
TTITLE5=Before The Party Ends
TTITLE6=If This is What It Means
TTITLE7=Dirty Windows
TTITLE8=School For Dogs
TTITLE9=Underwater
TTITLE10=Rich Women
TTITLE11=Midnight Cruise
TTITLE12=All The Right Moves
TTITLE13=Spit It Out
TTITLE14=This Ain't The First Time
TTITLE15=Mama
EXTD=
EXTT0=
EXTT1=
EXTT2=
EXTT3=
EXTT4=
EXTT5=
EXTT6=
EXTT7=
EXTT8=
EXTT9=
EXTT10=
EXTT11=
EXTT12=
EXTT13=
EXTT14=
EXTT15=
PLAYORDER=
